<?xml version="1.0" encoding="utf-8"?>
<!-- Generator: Adobe Illustrator 17.1.0, SVG Export Plug-In . SVG Version: 6.00 Build 0)  -->
<!DOCTYPE svg PUBLIC "-//W3C//DTD SVG 1.1//EN" "http://www.w3.org/Graphics/SVG/1.1/DTD/svg11.dtd">
<svg version="1.1" id="Layer_1" xmlns="http://www.w3.org/2000/svg" xmlns:xlink="http://www.w3.org/1999/xlink" x="0px" y="0px"
	 viewBox="0 0 179.7 40" enable-background="new 0 0 179.7 40" xml:space="preserve">
<g>
	<g>
		<path fill="#FFFFFF" d="M13.9,14.1V6.4l-3.8,7.7H8.4L4.6,6.4v7.7H0.7V2.2h5.4l3.1,6.5l3.2-6.5h5.4v11.9H13.9z"/>
		<path fill="#FFFFFF" d="M30.8,14.1L30,12.4h-6l-0.7,1.7h-4.4l5.7-11.9h4.9l5.7,11.9H30.8z M27,5.2l-1.9,4.5H29L27,5.2z"/>
		<path fill="#FFFFFF" d="M44.7,14.1l-2.5-4h-2v4h-3.9V2.2h7.6c3.3,0,5.3,1.7,5.3,4c0,2.1-1.6,3.2-3,3.6l3.1,4.4H44.7z M45.1,6.2
			c0-0.8-0.9-1.3-1.9-1.3h-3.1v2.6h3.1C44.3,7.4,45.1,7,45.1,6.2z"/>
		<path fill="#FFFFFF" d="M60.1,14.1l-4-4.5l-1,1v3.5h-3.9V2.2h3.9v4.9l4.6-4.9h4.8l-5.9,5.6l6.2,6.3H60.1z"/>
		<path fill="#FFFFFF" d="M66,14.1V2.2h11.1v2.7h-7.2v1.9h7v2.7h-7v2h7.2v2.7H66z"/>
		<path fill="#FFFFFF" d="M82.7,14.1V4.9h-4.2V2.2h12.3v2.7h-4.2v9.2H82.7z"/>
		<path fill="#FFFFFF" d="M97.4,12.4l2.1-2.3c1.1,0.9,2.8,1.6,4.8,1.6c1.3,0,2.2-0.4,2.2-1c0-1.6-8.6-0.3-8.6-4.9c0-2,2.2-3.8,6-3.8
			c2.4,0,4.5,0.6,6.1,1.7l-2.1,2.2c-1.3-0.8-2.9-1.2-4.4-1.2c-1.1,0-1.6,0.4-1.6,0.9c0,1.5,8.5,0.4,8.5,4.8c0,2.4-2.2,4-6.3,4
			C101,14.3,98.9,13.6,97.4,12.4z"/>
		<path fill="#FFFFFF" d="M115.2,14.1V4.9h-4.2V2.2h12.3v2.7h-4.2v9.2H115.2z"/>
		<path fill="#FFFFFF" d="M133.6,14.1l-2.5-4h-2v4h-3.9V2.2h7.6c3.4,0,5.3,1.7,5.3,4c0,2.1-1.6,3.2-3,3.6l3.1,4.4H133.6z M134,6.2
			c0-0.8-0.9-1.3-1.9-1.3H129v2.6h3.1C133.1,7.4,134,7,134,6.2z"/>
		<path fill="#FFFFFF" d="M140.1,14.1V2.2h11.1v2.7H144v1.9h7v2.7h-7v2h7.2v2.7H140.1z"/>
		<path fill="#FFFFFF" d="M153.4,14.1V2.2h11.1v2.7h-7.2v1.9h7v2.7h-7v2h7.2v2.7H153.4z"/>
		<path fill="#FFFFFF" d="M170.1,14.1V4.9h-4.2V2.2h12.3v2.7H174v9.2H170.1z"/>
	</g>
	<g>
		<path fill="#FFFFFF" d="M1,38.4V25.4h4.3c2.1,0,3.3,1.8,3.3,3.9s-1.2,3.9-3.3,3.9h-3v5.1H1z M7.2,29.3c0-1.5-0.9-2.5-2.1-2.5H2.3
			v4.9h2.8C6.4,31.8,7.2,30.8,7.2,29.3z"/>
		<path fill="#FFFFFF" d="M16.5,38.4l-2.7-5.1h-2.1v5.1h-1.3V25.4h4.3c2,0,3.3,1.5,3.3,3.9c0,2.3-1.3,3.6-2.8,3.8l2.9,5.3H16.5z
			 M16.6,29.3c0-1.5-0.9-2.5-2.1-2.5h-2.8v4.9h2.8C15.7,31.8,16.6,30.8,16.6,29.3z"/>
		<path fill="#FFFFFF" d="M19.6,31.9c0-3.8,2.1-6.7,5.3-6.7c3.2,0,5.3,2.9,5.3,6.7s-2.1,6.7-5.3,6.7C21.8,38.6,19.6,35.7,19.6,31.9z
			 M28.9,31.9c0-3-1.5-5.3-3.9-5.3c-2.4,0-3.9,2.2-3.9,5.3c0,3,1.5,5.3,3.9,5.3C27.3,37.2,28.9,34.9,28.9,31.9z"/>
		<path fill="#FFFFFF" d="M34.5,38.4V26.9h-3.4v-1.4h8.1v1.4h-3.4v11.5H34.5z"/>
		<path fill="#FFFFFF" d="M40.1,31.9c0-3.8,2.1-6.7,5.3-6.7c3.2,0,5.3,2.9,5.3,6.7s-2.1,6.7-5.3,6.7C42.3,38.6,40.1,35.7,40.1,31.9z
			 M49.4,31.9c0-3-1.5-5.3-3.9-5.3c-2.4,0-3.9,2.2-3.9,5.3c0,3,1.5,5.3,3.9,5.3C47.8,37.2,49.4,34.9,49.4,31.9z"/>
		<path fill="#FFFFFF" d="M55,38.4V26.9h-3.4v-1.4h8.1v1.4h-3.4v11.5H55z"/>
		<path fill="#FFFFFF" d="M64.6,38.4v-5.5l-4.2-7.5H62l3.3,6l3.3-6h1.6l-4.2,7.5v5.5H64.6z"/>
		<path fill="#FFFFFF" d="M71.5,38.4V25.4h4.3c2.1,0,3.3,1.8,3.3,3.9s-1.2,3.9-3.3,3.9h-3v5.1H71.5z M77.8,29.3
			c0-1.5-0.9-2.5-2.1-2.5h-2.8v4.9h2.8C76.9,31.8,77.8,30.8,77.8,29.3z"/>
		<path fill="#FFFFFF" d="M80.9,38.4V25.4h1.3v12.9H80.9z"/>
		<path fill="#FFFFFF" d="M92.3,38.4l-6.2-10.3v10.3h-1.3V25.4h1.4l6.1,10.1V25.4h1.3v12.9H92.3z"/>
		<path fill="#FFFFFF" d="M95.6,31.9c0-4,2.4-6.7,5.5-6.7c1.9,0,3.2,1,4.1,2.4l-1.1,0.8c-0.7-1-1.8-1.8-3.1-1.8
			c-2.3,0-4.1,2.2-4.1,5.3c0,3.1,1.8,5.3,4.1,5.3c1.3,0,2.3-0.8,2.9-1.4v-2.6h-3.7v-1.4h5v4.7c-1,1.3-2.4,2.2-4.2,2.2
			C98.1,38.6,95.6,35.9,95.6,31.9z"/>
		<path fill="#FFFFFF" d="M111.6,38.4V25.4h7v1.4h-5.7V31h5.6v1.4h-5.6v5.9H111.6z"/>
		<path fill="#FFFFFF" d="M120.4,38.4V25.4h7v1.4h-5.7V31h5.6v1.4h-5.6v4.5h5.7v1.4H120.4z"/>
		<path fill="#FFFFFF" d="M128.9,36.6l0.8-1.2c0.7,1,1.9,1.8,3.4,1.8c1.9,0,2.5-1.2,2.5-2.2c0-3.3-6.3-1.5-6.3-6.1
			c0-2.1,1.6-3.6,3.7-3.6c1.6,0,2.9,0.7,3.8,1.8l-0.8,1.2c-0.8-1.1-1.9-1.6-3.1-1.6c-1.3,0-2.2,0.8-2.2,2.1c0,2.9,6.3,1.2,6.3,6.1
			c0,1.9-1.1,3.8-3.9,3.8C131.1,38.6,129.7,37.8,128.9,36.6z"/>
		<path fill="#FFFFFF" d="M141.4,38.4V26.9H138v-1.4h8.1v1.4h-3.4v11.5H141.4z"/>
		<path fill="#FFFFFF" d="M147.9,38.4V25.4h1.3v12.9H147.9z"/>
		<path fill="#FFFFFF" d="M154.9,38.4l-4.3-12.9h1.5l3.6,11.2l3.6-11.2h1.5l-4.3,12.9H154.9z"/>
		<path fill="#FFFFFF" d="M169,38.4l-0.9-2.9h-5.3l-0.9,2.9h-1.5l4.3-12.9h1.6l4.3,12.9H169z M165.4,27.1l-2.3,7h4.5L165.4,27.1z"/>
		<path fill="#FFFFFF" d="M171.9,38.4V25.4h1.3v11.5h5v1.4H171.9z"/>
	</g>
	<line fill="none" stroke="#FFFFFF" stroke-miterlimit="10" x1="1" y1="20.5" x2="178" y2="20.5"/>
</g>
</svg>
