<?xml version="1.0" encoding="utf-8"?>
<!-- Generator: Adobe Illustrator 17.1.0, SVG Export Plug-In . SVG Version: 6.00 Build 0)  -->
<!DOCTYPE svg PUBLIC "-//W3C//DTD SVG 1.1//EN" "http://www.w3.org/Graphics/SVG/1.1/DTD/svg11.dtd">
<svg version="1.1" id="Layer_1" xmlns="http://www.w3.org/2000/svg" xmlns:xlink="http://www.w3.org/1999/xlink" x="0px" y="0px"
	 viewBox="0 0 130 36" enable-background="new 0 0 130 36" xml:space="preserve">
<g>
	<g>
		<g>
			<polygon fill="#545454" points="12.551,5.919 12.551,27.997 25.297,5.919 			"/>
		</g>
		<g>
			<polygon fill="#545454" points="13.517,28.541 32.636,17.517 26.263,6.462 			"/>
		</g>
		<g>
			<polygon fill="#545454" points="11.433,6.885 5,18 11.433,29.115 			"/>
		</g>
		<g>
			<polygon fill="#545454" points="39.855,30.081 33.18,18.483 13.095,30.081 25.901,30.081 25.901,30.081 			"/>
		</g>
	</g>
	<g>
		<path fill="#545454" d="M47.406,23.437c-1.178,0-2.144-0.453-2.9-1.359c-0.755-0.906-1.148-2.295-1.148-4.168
			c0-1.691,0.393-2.99,1.178-3.926c0.785-0.936,1.752-1.389,2.869-1.389c0.906,0,1.691,0.332,2.326,0.967
			c0.634,0.634,1.057,1.45,1.208,2.477l-1.238,0.211c-0.121-0.755-0.362-1.359-0.755-1.812c-0.393-0.453-0.906-0.695-1.571-0.695
			c-0.816,0-1.45,0.362-1.963,1.057c-0.513,0.695-0.755,1.722-0.755,3.111c0,1.42,0.242,2.507,0.755,3.262
			c0.513,0.755,1.148,1.118,1.963,1.118c0.725,0,1.329-0.272,1.752-0.816c0.453-0.544,0.664-1.299,0.634-2.205h-2.628v-1.118H51
			v1.027c0,1.329-0.332,2.386-1.027,3.171C49.339,23.044,48.463,23.437,47.406,23.437z"/>
		<path fill="#545454" d="M53.96,23.225v-10.45h3.292c1.087,0,1.963,0.272,2.567,0.785c0.634,0.513,0.936,1.299,0.936,2.295
			c0,0.846-0.242,1.51-0.695,2.024c-0.483,0.513-1.087,0.816-1.873,0.967l2.326,4.349h-1.389l-2.265-4.259h-1.631v4.259
			C55.229,23.225,53.96,23.225,53.96,23.225z M55.229,17.849h1.963c0.695,0,1.269-0.151,1.691-0.483
			c0.423-0.302,0.634-0.816,0.634-1.51c0-1.299-0.785-1.963-2.356-1.963h-1.933L55.229,17.849L55.229,17.849z"/>
		<path fill="#545454" d="M69.878,23.225l-0.695-2.054h-4.289l-0.634,2.054h-1.299l3.443-10.42h1.299l3.443,10.42
			C71.176,23.225,69.878,23.225,69.878,23.225z M68.821,20.084l-1.752-5.648h-0.03l-1.812,5.648H68.821z"/>
		<path fill="#545454" d="M75.526,23.225v-4.38l-3.443-6.041h1.389l2.658,4.833h0.03l2.658-4.833h1.389l-3.443,6.041v4.38H75.526z"
			/>
		<path fill="#545454" d="M94.705,23.225l-0.695-2.054h-4.289l-0.634,2.054h-1.299l3.443-10.42h1.299l3.443,10.42
			C96.004,23.225,94.705,23.225,94.705,23.225z M93.648,20.084l-1.752-5.648h-0.03l-1.812,5.648H93.648z"/>
		<path fill="#545454" d="M98.783,23.225v-10.45h3.292c1.087,0,1.963,0.272,2.567,0.785c0.634,0.513,0.936,1.299,0.936,2.295
			c0,0.846-0.242,1.51-0.695,2.024c-0.483,0.513-1.087,0.816-1.873,0.967l2.326,4.349h-1.389l-2.265-4.259h-1.631v4.259
			C100.021,23.225,98.783,23.225,98.783,23.225z M100.051,17.849h1.963c0.695,0,1.269-0.151,1.691-0.483
			c0.423-0.302,0.634-0.816,0.634-1.51c0-1.299-0.785-1.963-2.356-1.963h-1.933C100.051,13.892,100.051,17.849,100.051,17.849z"/>
		<path fill="#545454" d="M108.689,23.225v-10.45h6.162v1.118h-4.893v3.383h4.47v1.118h-4.47v3.685h4.893v1.118
			C114.851,23.225,108.689,23.225,108.689,23.225z"/>
		<path fill="#545454" d="M123.731,23.225l-0.695-2.054h-4.289l-0.634,2.054h-1.299l3.443-10.42h1.299l3.443,10.42
			C125.03,23.225,123.731,23.225,123.731,23.225z M122.674,20.084l-1.752-5.648h-0.03l-1.812,5.648H122.674z"/>
	</g>
</g>
</svg>
