<?xml version="1.0" encoding="utf-8"?>
<!-- Generator: Adobe Illustrator 17.1.0, SVG Export Plug-In . SVG Version: 6.00 Build 0)  -->
<!DOCTYPE svg PUBLIC "-//W3C//DTD SVG 1.1//EN" "http://www.w3.org/Graphics/SVG/1.1/DTD/svg11.dtd">
<svg version="1.1" id="Layer_1" xmlns="http://www.w3.org/2000/svg" xmlns:xlink="http://www.w3.org/1999/xlink" x="0px" y="0px"
	 viewBox="0 0 188 1165.9" enable-background="new 0 0 188 1165.9" xml:space="preserve">
<g>
	<rect x="89" y="102" fill="#C1D831" width="6" height="948"/>
	<rect x="37" y="157" fill="#FFFFFF" width="110" height="45"/>
	<rect x="37" y="370" fill="#FFFFFF" width="110" height="45"/>
	<rect x="37" y="581" fill="#FFFFFF" width="110" height="45"/>
	<rect x="37" y="1090" fill="#FFFFFF" width="110" height="45"/>
	<path fill="#717268" d="M92,772.8c30.2,0,54.7-24.5,54.7-54.7c0-30.2-24.5-54.7-54.7-54.7c-30.2,0-54.7,24.5-54.7,54.7
		C37.3,748.3,61.8,772.8,92,772.8"/>
	<text transform="matrix(1 0 0 1 63.4205 722.3433)" fill="#FFFFFF" font-family="'ProximaNova-Semibold'" font-size="16">DESIGN</text>
	<path fill="#717268" d="M92,922.3c30.2,0,54.7-24.5,54.7-54.7c0-30.2-24.5-54.7-54.7-54.7c-30.2,0-54.7,24.5-54.7,54.7
		C37.3,897.8,61.8,922.3,92,922.3"/>
	<text transform="matrix(1 0 0 1 46.9149 871.7969)" fill="#FFFFFF" font-family="'ProximaNova-Semibold'" font-size="14">FABRICATION</text>
	<path fill="#F06798" d="M92,139.5c30.2,0,54.7-24.5,54.7-54.7c0-30.2-24.5-54.7-54.7-54.7c-30.2,0-54.7,24.5-54.7,54.7
		C37.3,115,61.8,139.5,92,139.5"/>
	<text transform="matrix(1 0 0 1 74.8766 73.0605)"><tspan x="0" y="0" fill="#FFFFFF" font-family="'ProximaNova-Semibold'" font-size="16">MAY</tspan><tspan x="2.5" y="36" fill="#FFFFFF" font-family="'ProximaNova-Semibold'" font-size="30">12</tspan></text>
	<text transform="matrix(1 0 0 1 49.5089 174)"><tspan x="0" y="0" fill="#666666" font-family="'ProximaNova-Semibold'" font-size="16">OPEN CALL</tspan><tspan x="-7.8" y="22" fill="#666666" font-family="'ProximaNova-Semibold'" font-size="16">ANNOUNCED</tspan></text>
	<path fill="#F06798" d="M92,349.9c30.2,0,54.7-24.5,54.7-54.7c0-30.2-24.5-54.7-54.7-54.7c-30.2,0-54.7,24.5-54.7,54.7
		C37.3,325.4,61.8,349.9,92,349.9"/>
	<text transform="matrix(1 0 0 1 72.0602 283.4878)"><tspan x="0" y="0" fill="#FFFFFF" font-family="'ProximaNova-Semibold'" font-size="16">JUNE</tspan><tspan x="2.4" y="36" fill="#FFFFFF" font-family="'ProximaNova-Semibold'" font-size="30">23</tspan></text>
	<text transform="matrix(1 0 0 1 49.5088 385.4272)"><tspan x="0" y="0" fill="#666666" font-family="'ProximaNova-Semibold'" font-size="16">OPEN CALL</tspan><tspan x="11.8" y="22" fill="#666666" font-family="'ProximaNova-Semibold'" font-size="16">CLOSED</tspan></text>
	<path fill="#F06798" d="M92,561.4c30.2,0,54.7-24.5,54.7-54.7c0-30.2-24.5-54.7-54.7-54.7c-30.2,0-54.7,24.5-54.7,54.7
		C37.3,536.9,61.8,561.4,92,561.4"/>
	<text transform="matrix(1 0 0 1 72.0602 494.9155)"><tspan x="0" y="0" fill="#FFFFFF" font-family="'ProximaNova-Semibold'" font-size="16">JUNE</tspan><tspan x="2.1" y="36" fill="#FFFFFF" font-family="'ProximaNova-Semibold'" font-size="30">30</tspan></text>
	<text transform="matrix(1 0 0 1 45.141 596.855)"><tspan x="0" y="0" fill="#666666" font-family="'ProximaNova-Semibold'" font-size="16">SELECTIONS</tspan><tspan x="-3.4" y="22" fill="#666666" font-family="'ProximaNova-Semibold'" font-size="16">ANNOUNCED</tspan></text>
	<path fill="#F06798" d="M92,1071.7c30.2,0,54.7-24.5,54.7-54.7c0-30.2-24.5-54.7-54.7-54.7c-30.2,0-54.7,24.5-54.7,54.7
		C37.3,1047.2,61.8,1071.7,92,1071.7"/>
	<text transform="matrix(1 0 0 1 54.9009 1005.2505)"><tspan x="0" y="0" fill="#FFFFFF" font-family="'ProximaNova-Semibold'" font-size="16">OCTOBER</tspan><tspan x="15" y="36" fill="#FFFFFF" font-family="'ProximaNova-Semibold'" font-size="30">2-4</tspan></text>
	<text transform="matrix(1 0 0 1 37.1487 1107.1899)"><tspan x="0" y="0" fill="#666666" font-family="'ProximaNova-Semibold'" font-size="16">PROTOTYPING</tspan><tspan x="19.4" y="22" fill="#666666" font-family="'ProximaNova-Semibold'" font-size="16">FESTIVAL</tspan></text>
</g>
</svg>
